# xmcd
#
# Track frame offsets: 
#        180
#        27712
#        50261
#        76112
#        103606
#        124484
#        151368
#        184534
#        227082
#        254275
#        305697
#
# Disc length: 4148 seconds
#
# Revision: 2
# Processed by: cddbd v1.5.2PL0 Copyright (c) Steve Scherf et al.
# Submitted via: ExactAudioCopy v0.99pb4
#
DISCID=8b10320b
DTITLE=Dutch Mason - Appearing Nightly
DYEAR=1996
DGENRE=Blues
TTITLE0=Everyday I Have The Blues
TTITLE1=Young Fashioned Ways
TTITLE2=Walking Blues
TTITLE3=Feels So Bad
TTITLE4=Swing Low Sweet Cadillac
TTITLE5=Pawnbroker
TTITLE6=Diddly Diddly Daddy
TTITLE7=Sweet Little Angel
TTITLE8=Going To Chicago
TTITLE9=Bo Diddley
TTITLE10=Go Down Gambling
EXTD=
EXTT0=
EXTT1=
EXTT2=
EXTT3=
EXTT4=
EXTT5=
EXTT6=
EXTT7=
EXTT8=
EXTT9=
EXTT10=
PLAYORDER=
